<svg xmlns="http://www.w3.org/2000/svg" viewBox="0 0 418 421"><g id="Acronym"><line x1="28.85" y1="27.3" x2="396.85" y2="27.3" style="fill:#fff;stroke:#1d1d1b;stroke-miterlimit:10;stroke-width:6px"/><path d="M187.53,226.91C182.85,235.4,163.79,268,123.42,268c-47,0-65.56-36-65.56-72.5C57.86,130.71,121.11,78,171.24,78c19,0,33.94,10,44.74,10,5.4,0,8.74-3.35,10.8-7.46l3.85.77L212.89,131h-3.34a142.09,142.09,0,0,0,1-17.48c0-21.85-22.63-31.88-39.85-31.88-56.31,0-82.53,103.61-82.53,144.24,0,27.5,9,38.56,36.25,38.56,30,0,49.83-22.28,58.5-37.5Z"/><path d="M155.15,166.41h.25c3.88-5.1,11.78-7.89,18.46-7.89,14.45,0,23.2,9.59,23.2,23.68v38.26H184.55V181.35c0-8-3.65-12.39-12-12.39-12.27,0-17.37,8.38-17.37,19.8v31.7H142.64V159.61h12.51Z"/><path d="M221.77,171.76h24.78v11.41H221.77v37.29H209.26V138.11H252.5v11.42H221.77Z"/><path d="M299.14,214.14a26.31,26.31,0,0,1-17.37,7.41c-18.21,0-27.08-14.69-27.08-31.33,0-16.4,8-31.7,26.23-31.7,6.68,0,14,2.18,18,7.53h.24V132h12.51v88.42H299.14Zm0-24.9c0-10.81-4.61-20.28-16.76-20.28-11.17,0-15.18,10.81-15.18,20.28,0,10.21,4,21.87,16,21.87C295,211.11,299.14,199.45,299.14,189.24Z"/><path d="M350.72,209h14.81v11.42H323.39V209h14.82V149.53H325.82V138.11H363v11.42H350.72Z"/><path d="M194,226.61h12.68l-.17.57H203l-5.83,16.2a18,18,0,0,0-1.26,6.23c0,3.69,2.23,5.67,5.84,5.67,6.19,0,9.35-5.1,10.77-9.59l5.75-18.51h-3.89l.16-.57h8l-.16.57h-3.48l-6,19c-2.1,6.68-6.19,9.8-12.31,9.8-5.87,0-9.27-3.44-9.27-8a19.77,19.77,0,0,1,1.34-6.84l5-14h-3.89Z" style="fill:#1d1d1b"/><path d="M230.29,227.18h-3.93l.16-.57h12.72l-.17.57h-3.52l-9.92,27.7h7.86c4.81,0,8.22-5.71,9.15-7.37h.56l-2.83,7.93H216.72l.16-.56h3.49Z" style="fill:#1d1d1b"/><path d="M261.12,227.18H258.2c-4.58,0-8.1,5.79-9.11,7.41h-.57l2.84-8h25.06l-2.83,8H273a17.76,17.76,0,0,0,.37-3.72c0-2.07-1.3-3.69-4.54-3.69h-2.47l-9.92,27.7h3.89l-.17.56H247.51l.16-.56h3.53Z" style="fill:#1d1d1b"/><path d="M280.23,226.61h12.68l-.17.57h-3.52l-5.83,16.2a18,18,0,0,0-1.26,6.23c0,3.69,2.23,5.67,5.83,5.67,6.2,0,9.36-5.1,10.78-9.59l5.75-18.51H300.6l.16-.57h8l-.16.57h-3.49l-5.95,19c-2.1,6.68-6.19,9.8-12.31,9.8-5.87,0-9.27-3.44-9.27-8a19.76,19.76,0,0,1,1.33-6.84l5-14h-3.89Z" style="fill:#1d1d1b"/><path d="M316.49,227.18h-3.93l.24-.57h10.37c4,0,9.35,1.46,9.35,6.28,0,5.35-6.31,6.72-11.5,7l-.08.12c3.32.24,7.58.93,7.58,5,0,2.71-1,4.94-1,7.61,0,1.5.65,2.47,2.15,2.47a3.33,3.33,0,0,0,1-.16l.16.53a8.48,8.48,0,0,1-2.1.2c-5.14,0-6.4-1.18-6.4-4.38a27.42,27.42,0,0,1,.49-3.64,33.84,33.84,0,0,0,.44-3.93c0-2-1-3.6-5.59-3.6h-.48l-5.31,14.74h3.93l-.2.56H303l.2-.56h3.44Zm.85,12.39h1.54a9,9,0,0,0,4.9-1c1.5-1,3.32-2.92,3.32-6.89,0-3-1.86-4.49-4.54-4.49h-.77Z" style="fill:#1d1d1b"/><path d="M346.79,227.18h-4l.16-.57h22.6l-2.47,6.89h-.57a11,11,0,0,0,.49-2.92c0-2-1-3.4-4-3.4h-6.93l-4.49,12.51h2.18c3.89,0,6.08-4.17,6.6-5.14h.57l-4.25,11.78h-.57a9.92,9.92,0,0,0,.53-3c0-2-1.74-3.12-4.13-3.12h-1.14l-5.22,14.62H350c4.81,0,8.26-5.79,9.15-7.37h.56l-2.83,7.93H333.22l.16-.56h3.49Z" style="fill:#1d1d1b"/></g></svg>